<svg width="153" height="37" viewBox="0 0 153 37" fill="none" xmlns="http://www.w3.org/2000/svg">
<path d="M10.2349 20.0261V24.981H14.8924V19.8854C14.8924 18.6418 13.881 17.6272 12.634 17.6272C11.3117 17.6272 10.2349 18.704 10.2349 20.0261Z" fill="#0100CD"/>
<path d="M8.92554 26.2901V20.0261C8.92554 17.9807 10.5882 16.3181 12.6339 16.3181C13.5896 16.3181 14.4537 16.6978 15.0952 17.3098C15.7563 14.8519 17.9984 13.0323 20.6593 13.0323H21.0946C24.1647 13.0323 26.6653 15.5294 26.6653 18.6025V24.981H34.897C35.6105 23.0436 36 20.949 36 18.7628C36 8.8203 27.9418 0.762848 17.9984 0.762848C8.05492 0.762848 0 8.8203 0 18.7628C0 28.7054 8.05819 36.7628 18.0016 36.7628C25.2547 36.7628 31.5029 32.4723 34.3537 26.2901H8.92554Z" fill="#0100CD"/>
<path d="M21.098 14.3414H20.6627C18.2047 14.3414 16.2048 16.341 16.2048 18.7989V19.8821V24.981H25.3595V18.6025C25.3595 16.2527 23.448 14.3414 21.098 14.3414Z" fill="#0100CD"/>
<path d="M59.7656 20.6089C59.7656 21.9813 59.4502 23.0853 58.8193 23.9209C58.1885 24.751 57.3418 25.166 56.2793 25.166C55.1449 25.166 54.2677 24.7648 53.6479 23.9624L53.5732 25H52.1621V12.25H53.6978V17.0063C54.3175 16.2371 55.1725 15.8525 56.2627 15.8525C57.3529 15.8525 58.2078 16.2648 58.8276 17.0894C59.453 17.9139 59.7656 19.0428 59.7656 20.4761V20.6089ZM58.23 20.4346C58.23 19.3887 58.028 18.5807 57.624 18.0107C57.2201 17.4408 56.639 17.1558 55.8809 17.1558C54.8682 17.1558 54.1405 17.6261 53.6978 18.5669V22.4517C54.1681 23.3924 54.9014 23.8628 55.8975 23.8628C56.6335 23.8628 57.2062 23.5778 57.6157 23.0078C58.0252 22.4378 58.23 21.5801 58.23 20.4346ZM70.1951 25.166C68.9776 25.166 67.9871 24.7676 67.2234 23.9707C66.4597 23.1683 66.0779 22.0975 66.0779 20.7583V20.4761C66.0779 19.5851 66.2467 18.791 66.5842 18.0938C66.9273 17.391 67.4032 16.8431 68.012 16.4502C68.6262 16.0518 69.2903 15.8525 70.0041 15.8525C71.1718 15.8525 72.0793 16.2371 72.7268 17.0063C73.3743 17.7756 73.698 18.8768 73.698 20.3101V20.9492H67.6135C67.6357 21.8346 67.893 22.5513 68.3855 23.0991C68.8835 23.6414 69.5144 23.9126 70.2781 23.9126C70.8204 23.9126 71.2797 23.8019 71.656 23.5806C72.0323 23.3592 72.3616 23.0659 72.6438 22.7007L73.5818 23.4312C72.8292 24.5877 71.7003 25.166 70.1951 25.166ZM70.0041 17.1143C69.3843 17.1143 68.8642 17.3411 68.4436 17.7949C68.023 18.2432 67.7629 18.874 67.6633 19.6875H72.1623V19.5713C72.1181 18.791 71.9078 18.1878 71.5315 17.7617C71.1552 17.3301 70.6461 17.1143 70.0041 17.1143ZM82.3262 13.8438V16.0186H84.0029V17.2056H82.3262V22.7754C82.3262 23.1351 82.4009 23.4062 82.5503 23.5889C82.6997 23.766 82.9542 23.8545 83.3139 23.8545C83.491 23.8545 83.7345 23.8213 84.0444 23.7549V25C83.6404 25.1107 83.2475 25.166 82.8657 25.166C82.1795 25.166 81.6621 24.9585 81.3135 24.5435C80.9648 24.1284 80.7905 23.5391 80.7905 22.7754V17.2056H79.1553V16.0186H80.7905V13.8438H82.3262ZM96.1091 25C96.0206 24.8229 95.9486 24.5075 95.8933 24.0537C95.1794 24.7952 94.3272 25.166 93.3366 25.166C92.4512 25.166 91.7235 24.917 91.1535 24.4189C90.5891 23.9154 90.3069 23.279 90.3069 22.5098C90.3069 21.5745 90.661 20.8496 91.3694 20.335C92.0832 19.8148 93.0848 19.5547 94.3742 19.5547H95.8684V18.8491C95.8684 18.3123 95.7079 17.8862 95.3869 17.5708C95.066 17.2498 94.5928 17.0894 93.9675 17.0894C93.4196 17.0894 92.9603 17.2277 92.5896 17.5044C92.2188 17.7811 92.0334 18.1159 92.0334 18.5088H90.4895C90.4895 18.0605 90.6472 17.6289 90.9626 17.2139C91.2836 16.7933 91.7152 16.4613 92.2575 16.2178C92.8054 15.9743 93.4058 15.8525 94.0588 15.8525C95.0936 15.8525 95.9043 16.1126 96.4909 16.6328C97.0775 17.1475 97.3819 17.8586 97.404 18.7661V22.8999C97.404 23.7244 97.5092 24.3802 97.7195 24.8672V25H96.1091ZM93.5608 23.8296C94.0422 23.8296 94.4987 23.7051 94.9304 23.4561C95.362 23.207 95.6747 22.8833 95.8684 22.4849V20.6421H94.6648C92.7833 20.6421 91.8425 21.1927 91.8425 22.2939C91.8425 22.7754 92.003 23.1517 92.3239 23.4229C92.6449 23.694 93.0572 23.8296 93.5608 23.8296ZM106.107 17.106C106.788 16.2703 107.673 15.8525 108.763 15.8525C110.661 15.8525 111.619 16.9233 111.635 19.0649V25H110.1V19.0566C110.094 18.4092 109.945 17.9305 109.651 17.6206C109.364 17.3107 108.913 17.1558 108.298 17.1558C107.8 17.1558 107.363 17.2886 106.987 17.5542C106.61 17.8198 106.317 18.1685 106.107 18.6001V25H104.571V12.25H106.107V17.106ZM120.363 25H118.827V16.0186H120.363V25ZM118.703 13.6362C118.703 13.3872 118.778 13.1769 118.927 13.0054C119.082 12.8338 119.309 12.748 119.608 12.748C119.906 12.748 120.133 12.8338 120.288 13.0054C120.443 13.1769 120.521 13.3872 120.521 13.6362C120.521 13.8853 120.443 14.0928 120.288 14.2588C120.133 14.4248 119.906 14.5078 119.608 14.5078C119.309 14.5078 119.082 14.4248 118.927 14.2588C118.778 14.0928 118.703 13.8853 118.703 13.6362ZM129.257 25H127.721V12.25H129.257V25ZM138.151 25H136.615V12.25H138.151V25ZM150.605 22.6177C150.605 22.2026 150.448 21.8817 150.132 21.6548C149.822 21.4224 149.277 21.2231 148.497 21.0571C147.722 20.8911 147.105 20.6919 146.646 20.4595C146.192 20.2271 145.855 19.9504 145.633 19.6294C145.417 19.3084 145.309 18.9266 145.309 18.4839C145.309 17.7479 145.619 17.1253 146.239 16.6162C146.865 16.1071 147.661 15.8525 148.63 15.8525C149.648 15.8525 150.473 16.1154 151.103 16.6411C151.74 17.1668 152.058 17.8392 152.058 18.6582H150.514C150.514 18.2376 150.334 17.8752 149.975 17.5708C149.62 17.2664 149.172 17.1143 148.63 17.1143C148.071 17.1143 147.634 17.236 147.318 17.4795C147.003 17.723 146.845 18.0412 146.845 18.4341C146.845 18.8049 146.992 19.0843 147.285 19.2725C147.578 19.4606 148.107 19.6405 148.871 19.812C149.64 19.9836 150.262 20.1883 150.738 20.4263C151.214 20.6642 151.566 20.952 151.792 21.2896C152.025 21.6216 152.141 22.0283 152.141 22.5098C152.141 23.3122 151.82 23.9569 151.178 24.4438C150.536 24.9253 149.703 25.166 148.68 25.166C147.96 25.166 147.324 25.0387 146.77 24.7842C146.217 24.5296 145.783 24.1755 145.467 23.7217C145.157 23.2624 145.002 22.7671 145.002 22.2358H146.538C146.566 22.7505 146.77 23.16 147.152 23.4644C147.54 23.7632 148.049 23.9126 148.68 23.9126C149.261 23.9126 149.726 23.7964 150.074 23.564C150.428 23.326 150.605 23.0106 150.605 22.6177Z" fill="#0100CD"/>
</svg>
